# 3ds Max Wavefront OBJ Exporter v0.97b - (c)2007 guruware
# File Created: 19.08.2019 10:28:18

mtllib fishing_net_hanging_flat_long.mtl

#
# object fishing_net_hanging_flat_long
#

v  -50.4735 7.5707 -0.4198
v  -89.5841 14.9651 -2.8697
v  -50.4461 7.8711 -0.9822
v  -89.4224 15.2734 -3.3887
v  -6.1916 0.8877 -0.3093
v  -6.1806 0.5803 0.2362
v  27.2985 -1.1457 -0.3639
v  27.4272 -1.4601 0.1803
v  57.3648 2.8272 -0.3429
v  57.6607 2.5276 0.1929
v  89.7511 12.9839 0.0800
v  89.6306 12.5645 0.6105
v  -89.7511 15.5946 -2.8744
v  -50.4953 8.2185 -0.3909
v  -5.9724 1.1980 0.2705
v  27.3944 -0.8277 0.2181
v  57.3648 3.1266 0.2446
v  89.5731 13.2363 0.6411
v  51.5389 1.6611 1.7086
v  51.4897 3.1427 0.2722
v  51.4211 2.7859 1.4215
v  51.7991 1.2500 -0.3021
v  51.6814 2.3746 -0.5892
v  51.7279 0.8932 0.8465
v  46.3567 1.6809 -1.0717
v  46.0938 2.0914 0.9397
v  46.1650 2.4480 -0.2090
v  46.4115 0.2011 0.3629
v  46.2197 0.9681 1.2255
v  46.4827 0.5576 -0.7857
v  50.2543 0.8034 -0.7148
v  50.1612 0.3363 0.7901
v  48.1453 0.5286 -0.9064
v  48.0521 0.0617 0.5978
v  49.9120 1.3416 1.9188
v  47.8029 1.0668 1.7272
v  49.7531 2.8139 1.5428
v  47.6413 2.5382 1.3517
v  49.8462 3.2810 0.0385
v  47.7317 3.0052 -0.1525
v  50.0955 2.2757 -1.0903
v  47.9837 2.0004 -1.2819
v  11.8477 -1.1864 -0.5447
v  11.8669 -0.3647 1.3379
v  11.8148 -1.2978 0.6518
v  11.9846 0.7912 -0.3687
v  11.9517 0.6797 0.8274
v  11.9326 -0.1419 -1.0548
v  6.5805 1.0477 0.7198
v  6.4518 -0.9275 0.5419
v  6.4984 0.0045 1.2292
v  6.5641 0.2272 -1.1635
v  6.4846 -0.8163 -0.6541
v  6.6106 1.1592 -0.4769
v  10.3905 1.2255 -0.5593
v  10.3248 0.0040 -1.4585
v  8.2568 1.3714 -0.6019
v  8.1938 0.1504 -1.5011
v  10.2152 -1.3633 -0.7905
v  8.0870 -1.2164 -0.8338
v  10.1714 -1.5092 0.7768
v  8.0432 -1.3623 0.7330
v  10.2398 -0.2878 1.6755
v  8.1089 -0.1414 1.6324
v  10.3494 1.0798 1.0076
v  8.2157 1.2257 0.9648
v  -33.1847 5.7646 0.6813
v  -33.1710 5.8375 -1.3967
v  -33.0943 6.3615 -0.3387
v  -33.4230 4.1196 -0.4145
v  -33.3326 4.7165 -1.4351
v  -33.3491 4.6434 0.6435
v  -38.7066 5.5561 -1.4543
v  -38.4738 7.1993 -0.3568
v  -38.5450 6.6758 -1.4153
v  -38.7203 5.4836 0.6242
v  -38.5614 6.6032 0.6633
v  -38.7915 4.9600 -0.4343
v  -35.0911 4.0264 -0.4324
v  -34.9952 4.7123 0.9534
v  -37.2220 4.3600 -0.4408
v  -37.1262 5.0456 0.9457
v  -34.7843 6.1799 1.0033
v  -36.9180 6.5127 0.9961
v  -34.6665 6.9616 -0.3322
v  -36.8002 7.2938 -0.3394
v  -34.7624 6.2751 -1.7187
v  -36.8961 6.6079 -1.7259
v  -34.9760 4.8079 -1.7685
v  -37.1070 5.1411 -1.7763
# 90 vertices

vn -0.1352 -0.8712 -0.4719
vn -0.1256 -0.8354 -0.5352
vn -0.1304 -0.8719 -0.4721
vn -0.0536 -0.8704 -0.4895
vn -0.1293 -0.8650 -0.4849
vn -0.0536 -0.8700 -0.4901
vn 0.1125 -0.8486 -0.5170
vn 0.1110 -0.8400 -0.5310
vn 0.2518 -0.7788 -0.5745
vn 0.2541 -0.7859 -0.5637
vn -0.0643 -0.0095 0.9979
vn -0.0219 -0.0452 0.9987
vn -0.0718 -0.0468 0.9963
vn -0.0224 -0.0478 0.9986
vn -0.0017 -0.0548 0.9985
vn -0.0021 -0.0598 0.9982
vn 0.0074 -0.0593 0.9982
vn 0.0098 -0.0812 0.9966
vn 0.0121 -0.0801 0.9967
vn 0.0019 -0.0454 0.9990
vn -0.2596 0.8472 -0.4635
vn -0.1166 0.8849 -0.4509
vn -0.2643 0.8593 -0.4378
vn -0.1157 0.8796 -0.4614
vn 0.0522 0.8728 -0.4853
vn 0.0522 0.8721 -0.4865
vn 0.1418 0.8495 -0.5082
vn 0.1427 0.8585 -0.4925
vn 0.1920 0.8531 -0.4852
vn 0.1930 0.8828 -0.4282
vn 0.9864 0.1291 0.1013
vn 0.9861 0.1298 0.1038
vn 0.9868 0.1285 0.0987
vn -0.9852 -0.1369 -0.1036
vn -0.9858 -0.1356 -0.0985
vn -0.9860 -0.1317 -0.1020
vn 0.3318 -0.9065 -0.2610
vn 0.2254 -0.7024 0.6751
vn 0.1493 -0.9469 -0.2847
vn 0.0356 -0.7423 0.6691
vn -0.0383 -0.9537 -0.2984
vn 0.0747 0.2539 0.9643
vn 0.0360 -0.7426 0.6688
vn -0.1548 -0.7551 0.6371
vn -0.1181 0.2337 0.9651
vn 0.0377 0.9537 0.2983
vn -0.1178 0.2334 0.9652
vn -0.3061 0.2024 0.9302
vn -0.1493 0.9469 0.2848
vn 0.1542 0.7543 -0.6382
vn -0.1493 0.9469 0.2849
vn -0.3318 0.9066 0.2608
vn -0.0364 0.7423 -0.6691
vn 0.3065 -0.2052 -0.9295
vn -0.0361 0.7426 -0.6688
vn -0.2252 0.7027 -0.6749
vn 0.1180 -0.2334 -0.9652
vn 0.3073 -0.2039 -0.9295
vn 0.1181 -0.2333 -0.9652
vn -0.0747 -0.2542 -0.9643
vn -0.0745 -0.2539 -0.9644
vn 0.9973 -0.0709 0.0208
vn -0.9978 0.0640 -0.0192
vn -0.9976 0.0655 -0.0213
vn -0.9975 0.0671 -0.0234
vn 0.2479 0.5649 -0.7871
vn 0.1802 -0.4434 -0.8780
vn 0.0564 0.5900 -0.8055
vn -0.0121 -0.4382 -0.8988
vn -0.1366 0.5921 -0.7942
vn 0.1205 -0.9887 -0.0888
vn -0.0119 -0.4380 -0.8989
vn -0.1366 0.5920 -0.7943
vn -0.2035 -0.4170 -0.8858
vn -0.0667 -0.9933 -0.0943
vn 0.1365 -0.5918 0.7944
vn -0.0666 -0.9933 -0.0944
vn -0.2516 -0.9630 -0.0964
vn -0.0573 -0.5896 0.8057
vn 0.2035 0.4166 0.8860
vn -0.0569 -0.5901 0.8053
vn -0.2480 -0.5669 0.7856
vn 0.0119 0.4381 0.8989
vn 0.2513 0.9631 0.0966
vn 0.0120 0.4380 0.8989
vn -0.1799 0.4430 0.8783
vn 0.0660 0.9934 0.0941
vn 0.2509 0.9632 0.0961
vn -0.1209 0.9887 0.0887
vn -0.1207 0.9887 0.0890
vn 0.9894 -0.1451 0.0027
vn 0.9897 -0.1428 0.0041
vn 0.9891 -0.1475 0.0014
vn -0.9904 0.1382 -0.0017
vn -0.9901 0.1406 -0.0029
vn -0.9897 0.1430 -0.0041
vn 0.0453 -0.8965 0.4407
vn 0.1823 -0.0598 0.9814
vn -0.1401 -0.8835 0.4470
vn -0.0088 -0.0327 0.9994
vn -0.3195 -0.8404 0.4377
vn 0.3105 0.8082 0.5004
vn -0.0085 -0.0332 0.9994
vn -0.3192 -0.8408 0.4373
vn -0.1988 -0.0060 0.9800
vn 0.1309 0.8505 0.5094
vn 0.3187 0.8400 -0.4392
vn 0.1307 0.8507 0.5091
vn -0.0540 0.8641 0.5003
vn 0.1391 0.8836 -0.4471
vn 0.1996 0.0049 -0.9799
vn 0.1393 0.8837 -0.4468
vn -0.0461 0.8966 -0.4404
vn 0.0085 0.0327 -0.9994
vn 0.0535 -0.8641 -0.5006
vn 0.0089 0.0331 -0.9994
vn -0.1819 0.0605 -0.9815
vn -0.1312 -0.8508 -0.5089
vn 0.0537 -0.8640 -0.5007
vn -0.3104 -0.8087 -0.4997
vn -0.3114 -0.8089 -0.4987
# 121 vertex normals

vt -5.8594 0.4053 0.0000
vt -10.6094 0.3921 0.0000
vt -5.8594 0.2202 0.0000
vt -10.6094 0.2075 0.0000
vt -0.5459 0.2349 0.0000
vt -0.5464 0.4194 0.0000
vt 3.2402 0.2451 0.0000
vt 3.2383 0.4297 0.0000
vt 6.7500 0.2544 0.0000
vt 6.7500 0.4395 0.0000
vt 10.7188 0.2651 0.0000
vt 10.7188 0.4502 0.0000
vt -10.6094 0.5769 0.0000
vt -5.8594 0.5896 0.0000
vt -0.5469 0.6042 0.0000
vt 3.2383 0.6145 0.0000
vt 6.7500 0.6240 0.0000
vt 10.7109 0.6348 0.0000
vt 10.7109 0.8195 0.0000
vt 6.7500 0.8087 0.0000
vt 3.2383 0.7992 0.0000
vt -0.5474 0.7889 0.0000
vt -5.8594 0.7744 0.0000
vt -10.6094 0.7616 0.0000
vt 0.8208 0.3281 0.0000
vt 0.7578 0.2188 0.0000
vt 0.8208 0.2554 0.0000
vt 0.6943 0.3281 0.0000
vt 0.6943 0.2554 0.0000
vt 0.7578 0.3647 0.0000
vt 0.5645 0.4575 0.0000
vt 0.5645 0.5217 0.0000
vt 0.4663 0.4575 0.0000
vt 0.4663 0.5217 0.0000
vt 0.3682 0.4575 0.0000
vt 0.5645 0.5862 0.0000
vt 0.3682 0.5217 0.0000
vt 0.2700 0.4575 0.0000
vt 0.2700 0.5217 0.0000
vt 0.4663 0.5862 0.0000
vt 0.5645 0.6504 0.0000
vt 0.3682 0.5862 0.0000
vt 0.2700 0.5862 0.0000
vt 0.4663 0.6504 0.0000
vt 0.5645 0.7148 0.0000
vt 0.3682 0.6504 0.0000
vt 0.2700 0.6504 0.0000
vt 0.4663 0.7148 0.0000
vt 0.5645 0.7791 0.0000
vt 0.3682 0.7148 0.0000
vt 0.2700 0.7148 0.0000
vt 0.4663 0.7791 0.0000
vt 0.5645 0.8435 0.0000
vt 0.4663 0.8435 0.0000
vt 0.3682 0.7791 0.0000
vt 0.2700 0.7791 0.0000
vt 0.3682 0.8435 0.0000
vt 0.2700 0.8435 0.0000
vt 0.5122 -0.0576 0.0000
vt 0.5122 0.0107 0.0000
vt 0.4077 -0.0576 0.0000
vt 0.4077 0.0107 0.0000
vt 0.3032 -0.0576 0.0000
vt 0.5122 0.0796 0.0000
vt 0.3032 0.0107 0.0000
vt 0.1987 -0.0576 0.0000
vt 0.1987 0.0107 0.0000
vt 0.4077 0.0796 0.0000
vt 0.5122 0.1479 0.0000
vt 0.3032 0.0796 0.0000
vt 0.1987 0.0796 0.0000
vt 0.4077 0.1479 0.0000
vt 0.5122 0.2163 0.0000
vt 0.3032 0.1479 0.0000
vt 0.1987 0.1479 0.0000
vt 0.4077 0.2163 0.0000
vt 0.5122 0.2847 0.0000
vt 0.3032 0.2163 0.0000
vt 0.1987 0.2163 0.0000
vt 0.4077 0.2847 0.0000
vt 0.5122 0.3530 0.0000
vt 0.4077 0.3530 0.0000
vt 0.3032 0.2847 0.0000
vt 0.1987 0.2847 0.0000
vt 0.3032 0.3530 0.0000
vt 0.1987 0.3530 0.0000
vt 0.6514 0.1968 0.0000
vt 0.6514 0.2632 0.0000
vt 0.5493 0.1968 0.0000
vt 0.5493 0.2632 0.0000
vt 0.4475 0.1968 0.0000
vt 0.6514 0.3301 0.0000
vt 0.4475 0.2632 0.0000
vt 0.3455 0.1968 0.0000
vt 0.3455 0.2632 0.0000
vt 0.5493 0.3301 0.0000
vt 0.6514 0.3970 0.0000
vt 0.4475 0.3301 0.0000
vt 0.3455 0.3301 0.0000
vt 0.5493 0.3970 0.0000
vt 0.6514 0.4639 0.0000
vt 0.4475 0.3970 0.0000
vt 0.3455 0.3970 0.0000
vt 0.5493 0.4639 0.0000
vt 0.6514 0.5305 0.0000
vt 0.4475 0.4639 0.0000
vt 0.3455 0.4639 0.0000
vt 0.5493 0.5305 0.0000
vt 0.6514 0.5974 0.0000
vt 0.5493 0.5974 0.0000
vt 0.4475 0.5305 0.0000
vt 0.3455 0.5305 0.0000
vt 0.4475 0.5974 0.0000
vt 0.3455 0.5974 0.0000
# 114 texture coords

o fishing_net_hanging_flat_long
g fishing_net_hanging_flat_long
usemtl rope
s 1
f 1/1/1 2/2/2 3/3/2 
f 4/4/2 3/3/2 2/2/2 
f 3/3/3 5/5/4 1/1/5 
f 6/6/6 1/1/5 5/5/4 
f 5/5/4 7/7/7 6/6/6 
f 8/8/8 6/6/6 7/7/7 
f 7/7/7 9/9/9 8/8/8 
f 10/10/10 8/8/8 9/9/9 
f 9/9/9 11/11/10 10/10/10 
f 12/12/10 10/10/10 11/11/10 
f 2/2/11 1/1/12 13/13/13 
f 14/14/14 13/13/13 1/1/12 
f 1/1/12 6/6/15 14/14/14 
f 15/15/16 14/14/14 6/6/15 
f 6/6/15 8/8/17 15/15/16 
f 16/16/18 15/15/16 8/8/17 
f 8/8/17 10/10/19 16/16/18 
f 17/17/20 16/16/18 10/10/19 
f 10/10/19 12/12/20 17/17/20 
f 18/18/20 17/17/20 12/12/20 
f 11/19/21 9/20/22 18/18/23 
f 17/17/24 18/18/23 9/20/22 
f 9/20/22 7/21/25 17/17/24 
f 16/16/26 17/17/24 7/21/25 
f 7/21/25 5/22/27 16/16/26 
f 15/15/28 16/16/26 5/22/27 
f 5/22/27 3/23/29 15/15/28 
f 14/14/30 15/15/28 3/23/29 
f 3/23/29 4/24/30 14/14/30 
f 13/13/30 14/14/30 4/24/30 
usemtl plain_wood
f 19/25/31 20/26/32 21/27/33 
f 22/28/31 20/26/32 19/25/31 
f 23/29/32 20/26/32 22/28/31 
f 24/30/31 22/28/31 19/25/31 
f 25/29/34 26/27/35 27/26/36 
f 28/30/34 26/27/35 25/29/34 
f 29/25/35 26/27/35 28/30/34 
f 30/28/34 28/30/34 25/29/34 
f 22/31/37 24/32/38 31/33/39 
f 32/34/40 31/33/39 24/32/38 
f 31/33/39 32/34/40 33/35/41 
f 24/32/38 19/36/42 32/34/40 
f 34/37/43 33/35/41 32/34/40 
f 33/35/41 34/37/43 30/38/41 
f 28/39/44 30/38/41 34/37/43 
f 35/40/45 32/34/40 19/36/42 
f 32/34/40 35/40/45 34/37/43 
f 19/36/42 21/41/46 35/40/45 
f 34/37/43 36/42/47 28/39/44 
f 36/42/47 34/37/43 35/40/45 
f 29/43/48 28/39/44 36/42/47 
f 37/44/49 35/40/45 21/41/46 
f 35/40/45 37/44/49 36/42/47 
f 21/41/46 20/45/50 37/44/49 
f 36/42/47 38/46/51 29/43/48 
f 38/46/51 36/42/47 37/44/49 
f 26/47/52 29/43/48 38/46/51 
f 39/48/53 37/44/49 20/45/50 
f 37/44/49 39/48/53 38/46/51 
f 20/45/50 23/49/54 39/48/53 
f 38/46/51 40/50/55 26/47/52 
f 40/50/55 38/46/51 39/48/53 
f 27/51/56 26/47/52 40/50/55 
f 41/52/57 39/48/53 23/49/54 
f 39/48/53 41/52/57 40/50/55 
f 23/49/54 22/53/58 41/52/57 
f 31/54/59 41/52/57 22/53/58 
f 40/50/55 42/55/60 27/51/56 
f 42/55/60 40/50/55 41/52/57 
f 41/52/57 31/54/59 42/55/60 
f 25/56/61 27/51/56 42/55/60 
f 33/57/61 42/55/60 31/54/59 
f 42/55/60 33/57/61 25/56/61 
f 30/58/61 25/56/61 33/57/61 
f 43/25/62 44/26/62 45/27/62 
f 46/28/62 44/26/62 43/25/62 
f 47/29/62 44/26/62 46/28/62 
f 48/30/62 46/28/62 43/25/62 
f 49/29/63 50/27/64 51/26/65 
f 52/30/63 50/27/64 49/29/63 
f 53/25/64 50/27/64 52/30/63 
f 54/28/63 52/30/63 49/29/63 
f 46/59/66 48/60/67 55/61/68 
f 56/62/69 55/61/68 48/60/67 
f 55/61/68 56/62/69 57/63/70 
f 48/60/67 43/64/71 56/62/69 
f 58/65/72 57/63/70 56/62/69 
f 57/63/70 58/65/72 54/66/73 
f 52/67/74 54/66/73 58/65/72 
f 59/68/75 56/62/69 43/64/71 
f 56/62/69 59/68/75 58/65/72 
f 43/64/71 45/69/76 59/68/75 
f 58/65/72 60/70/77 52/67/74 
f 60/70/77 58/65/72 59/68/75 
f 53/71/78 52/67/74 60/70/77 
f 61/72/79 59/68/75 45/69/76 
f 59/68/75 61/72/79 60/70/77 
f 45/69/76 44/73/80 61/72/79 
f 60/70/77 62/74/81 53/71/78 
f 62/74/81 60/70/77 61/72/79 
f 50/75/82 53/71/78 62/74/81 
f 63/76/83 61/72/79 44/73/80 
f 61/72/79 63/76/83 62/74/81 
f 44/73/80 47/77/84 63/76/83 
f 62/74/81 64/78/85 50/75/82 
f 64/78/85 62/74/81 63/76/83 
f 51/79/86 50/75/82 64/78/85 
f 65/80/87 63/76/83 47/77/84 
f 63/76/83 65/80/87 64/78/85 
f 47/77/84 46/81/88 65/80/87 
f 55/82/87 65/80/87 46/81/88 
f 64/78/85 66/83/89 51/79/86 
f 66/83/89 64/78/85 65/80/87 
f 65/80/87 55/82/87 66/83/89 
f 49/84/90 51/79/86 66/83/89 
f 57/85/90 66/83/89 55/82/87 
f 66/83/89 57/85/90 49/84/90 
f 54/86/90 49/84/90 57/85/90 
f 67/25/91 68/26/92 69/27/93 
f 70/28/91 68/26/92 67/25/91 
f 71/29/92 68/26/92 70/28/91 
f 72/30/91 70/28/91 67/25/91 
f 73/29/94 74/27/95 75/26/96 
f 76/30/94 74/27/95 73/29/94 
f 77/25/95 74/27/95 76/30/94 
f 78/28/94 76/30/94 73/29/94 
f 70/87/97 72/88/98 79/89/99 
f 80/90/100 79/89/99 72/88/98 
f 79/89/99 80/90/100 81/91/101 
f 72/88/98 67/92/102 80/90/100 
f 82/93/103 81/91/101 80/90/100 
f 81/91/101 82/93/103 78/94/104 
f 76/95/105 78/94/104 82/93/103 
f 83/96/106 80/90/100 67/92/102 
f 80/90/100 83/96/106 82/93/103 
f 67/92/102 69/97/107 83/96/106 
f 82/93/103 84/98/108 76/95/105 
f 84/98/108 82/93/103 83/96/106 
f 77/99/109 76/95/105 84/98/108 
f 85/100/110 83/96/106 69/97/107 
f 83/96/106 85/100/110 84/98/108 
f 69/97/107 68/101/111 85/100/110 
f 84/98/108 86/102/112 77/99/109 
f 86/102/112 84/98/108 85/100/110 
f 74/103/113 77/99/109 86/102/112 
f 87/104/114 85/100/110 68/101/111 
f 85/100/110 87/104/114 86/102/112 
f 68/101/111 71/105/115 87/104/114 
f 86/102/112 88/106/116 74/103/113 
f 88/106/116 86/102/112 87/104/114 
f 75/107/117 74/103/113 88/106/116 
f 89/108/118 87/104/114 71/105/115 
f 87/104/114 89/108/118 88/106/116 
f 71/105/115 70/109/119 89/108/118 
f 79/110/118 89/108/118 70/109/119 
f 88/106/116 90/111/120 75/107/117 
f 90/111/120 88/106/116 89/108/118 
f 89/108/118 79/110/118 90/111/120 
f 73/112/121 75/107/117 90/111/120 
f 81/113/121 90/111/120 79/110/118 
f 90/111/120 81/113/121 73/112/121 
f 78/114/121 73/112/121 81/113/121 
# 0 polygons - 162 triangles

